<svg xmlns="http://www.w3.org/2000/svg" xmlns:xlink="http://www.w3.org/1999/xlink" version="1.1" x="0px" y="0px" viewBox="0 0 64 80" style="enable-background:new 0 0 64 64;" xml:space="preserve"><g><path d="M19.7,39.9c0.4,0.8,1,1.7,1.8,2.5c0,0,0,0.1,0.1,0.1l0,0.8c0.1,1.9,0.3,10,0.3,11.3c0,2.4,1.1,4.6,3,6   c1.5,1.1,3.3,1.6,5.4,1.6l1.7,0l1.7,0c2,0,3.9-0.6,5.4-1.6c1.9-1.4,3-3.5,3-6c0-1.3,0.2-9.4,0.3-11.3l0-0.9c0,0,0,0,0.1-0.1   c0.8-0.8,1.4-1.7,1.8-2.5c0.4-0.9,0.6-1.8,0.7-2.8c0.1-4.2,0.1-7.8,0-11.1c0-0.3-0.1-0.7-0.1-1.3l0-0.3c-0.1-0.4-0.1-0.8-0.1-1   c-0.1-1.3-0.9-2.2-2.3-2.6l-0.1,0c-1-0.3-2-0.6-3-0.9c-0.1,0-0.2-0.1-0.4-0.1l-0.4-0.2c-0.5-0.2-0.9-0.3-1.1-0.3l-0.6-0.1L32,23.4   l-4.7-4.2l-0.6,0.1c-0.3,0.1-0.6,0.2-1.2,0.3l-0.4,0.1c-0.2,0-0.3,0.1-0.4,0.1c-1,0.3-2,0.6-3,0.9l-0.1,0c-1.4,0.4-2.2,1.4-2.3,2.6   c0,0.2,0,0.6-0.1,1l0,0.3c-0.1,0.6-0.1,1.1-0.1,1.3c-0.1,3.3-0.1,6.9,0,11.1C19.1,38.1,19.3,39,19.7,39.9z M21.6,26   c0-0.1,0.1-0.7,0.1-1l0-0.3c0.1-0.5,0.1-1,0.1-1.2c0-0.2,0.3-0.3,0.5-0.3l0.1,0c1-0.3,2-0.6,3.1-0.9c0.1,0,0.1-0.1,0.2-0.1l0.5-0.2   c0.1,0,0.2-0.1,0.3-0.1l4.1,3.7c0.3,0.3,0.7,0.6,1.2,0.6l0.1,0l0.1,0c0.5,0,0.9-0.2,1.2-0.6l4.1-3.7c0.1,0,0.2,0.1,0.3,0.1l0.6,0.2   c0.1,0,0.2,0.1,0.3,0.1c1,0.3,2,0.6,3,0.9l0.2,0c0.2,0.1,0.5,0.2,0.5,0.3c0,0.2,0.1,0.7,0.1,1.2l0,0.3c0,0.4,0.1,0.9,0.1,1l0,0   c0.1,3.2,0.1,6.8,0,11c0,0.6-0.2,1.2-0.4,1.8c-0.3,0.6-0.7,1.3-1.4,1.9l-0.1,0.1c-0.1,0.1-0.2,0.3-0.4,0.5L40,41.6l-0.1,1.6   c-0.1,2-0.3,10.1-0.3,11.4c0,1.6-0.7,3-1.9,3.9c-1,0.7-2.4,1.1-3.9,1.1l-1.7,0l-1.7,0c-1.5,0-2.9-0.4-3.9-1.1   c-1.3-0.9-1.9-2.3-1.9-4c0-1.3-0.2-9.5-0.3-11.4L24,41.6l-0.2-0.3c-0.1-0.1-0.2-0.3-0.3-0.4l-0.1-0.1l0,0c-0.6-0.7-1.1-1.3-1.4-1.9   c-0.3-0.6-0.4-1.2-0.4-1.8C21.5,32.9,21.5,29.3,21.6,26z"/><path d="M31.9,16.8c0,0,0.1,0,0.1,0c1.8,0,3.7-0.8,5.1-2.2c1.5-1.4,2.3-3.4,2.4-5.3c0-2-0.8-3.8-2.2-5.3c-1.4-1.5-3.3-2.3-5.3-2.3   c0,0,0,0-0.1,0c-4.1,0-7.5,3.3-7.6,7.4C24.4,13.2,27.9,16.7,31.9,16.8z M32,4.3C32,4.3,32.1,4.3,32,4.3c1.3,0,2.6,0.6,3.5,1.5   c1,1,1.5,2.2,1.5,3.5c0,1.3-0.6,2.6-1.6,3.5c-1,0.9-2.2,1.5-3.4,1.5c0,0,0,0-0.1,0c-2.6,0-5-2.5-5-5.1C27,6.5,29.3,4.3,32,4.3z"/><path d="M8.1,35.8c0.1,0.1,0.2,0.1,0.3,0.1c0.1,0,0.3-0.1,0.4-0.2C9,35.5,9,35.2,8.8,35l-6.9-5.6c0,0-0.1-0.1-0.1-0.2h13.1   c0.3,0,0.5-0.2,0.5-0.5s-0.2-0.5-0.5-0.5H1.8c0,0,0,0,0-0.1l6.8-5.7C8.9,22.3,9,22,8.8,21.8c-0.2-0.2-0.5-0.2-0.7-0.1l-6.8,5.7   c-0.4,0.3-0.6,0.8-0.6,1.4s0.2,1,0.6,1.4L8.1,35.8z"/><path d="M49.1,29.3h13.1c0,0.1-0.1,0.1-0.1,0.2L55.2,35c-0.2,0.2-0.2,0.5-0.1,0.7c0.1,0.1,0.2,0.2,0.4,0.2c0.1,0,0.2,0,0.3-0.1   l6.9-5.6c0.4-0.3,0.6-0.8,0.6-1.4s-0.2-1-0.6-1.4l-6.8-5.7c-0.2-0.2-0.5-0.1-0.7,0.1c-0.2,0.2-0.2,0.5,0.1,0.7l6.8,5.7   c0,0,0,0,0,0.1H49.1c-0.3,0-0.5,0.2-0.5,0.5S48.8,29.3,49.1,29.3z"/></g></svg>